<svg id="visual" viewBox="0 0 900 600" width="900" height="600" xmlns="http://www.w3.org/2000/svg" xmlns:xlink="http://www.w3.org/1999/xlink" version="1.1"><rect x="0" y="0" width="900" height="600" fill="#001220"></rect><defs><linearGradient id="grad1_0" x1="33.3%" y1="0%" x2="100%" y2="100%"><stop offset="20%" stop-color="#001220" stop-opacity="1"></stop><stop offset="80%" stop-color="#001220" stop-opacity="1"></stop></linearGradient></defs><defs><linearGradient id="grad2_0" x1="0%" y1="0%" x2="66.7%" y2="100%"><stop offset="20%" stop-color="#001220" stop-opacity="1"></stop><stop offset="80%" stop-color="#001220" stop-opacity="1"></stop></linearGradient></defs><g transform="translate(900, 0)"><path d="M0 324.5C-36.9 301.1 -73.8 277.7 -107.2 258.7C-140.5 239.7 -170.4 225.2 -205.1 205.1C-239.7 185 -279.1 159.3 -299.8 124.2C-320.5 89.1 -322.5 44.5 -324.5 0L0 0Z" fill="#FBAE3C"></path></g><g transform="translate(0, 600)"><path d="M0 -324.5C44.3 -322.1 88.7 -319.7 124.2 -299.8C159.7 -279.9 186.4 -242.4 208.6 -208.6C230.8 -174.8 248.4 -144.7 267 -110.6C285.6 -76.4 305 -38.2 324.5 0L0 0Z" fill="#FBAE3C"></path></g></svg>